<?xml version="1.0" encoding="utf-8"?>
<!-- Generator: Adobe Illustrator 22.1.0, SVG Export Plug-In . SVG Version: 6.00 Build 0)  -->
<svg version="1.1" id="Layer_1" xmlns="http://www.w3.org/2000/svg" xmlns:xlink="http://www.w3.org/1999/xlink" x="0px" y="0px"
	 viewBox="0 0 65.9 75.6" style="enable-background:new 0 0 65.9 75.6;" xml:space="preserve">
<title>Stanley Logo</title>
<g id="XGxGbr.tif">
	
		<image style="overflow:visible;enable-background:new    ;" width="317" height="316" id="Layer_1-2" xlink:href="19847873E403F784.png"  transform="matrix(0.2087 0 0 0.2087 0 0.1044)">
	</image>
</g>
<path d="M6.4,70.5c-3,3.1-3.9-3.7-4-5.3v1.6v-1.7v2.7c0.6-7.9,4.5-14.4,9-20.8c4.6-6.4,8.7-13.2,12.3-20.2
	c2.8-5.9,6.7-13.2,7.4-19.8c0.2-1.5,0.5-5.6-1.1-6.3c-5.3-2.5-8,11.3-8.4,14.1c-0.4,3.7-0.5,7.3-0.4,11c0.1,6.9,1.1,14,0.3,20.8
	c-0.4,3-0.9,7.5-3.2,9.9c-2.1,2.2-5.3,2.2-6.4-0.9v4.2c0.4-5.9,6.2-12.8,9.5-17.5c3.7-5.3,7.8-10.4,12.2-15.2v-4.3
	c-1.6,6.8-2.3,13.7-2.3,20.7c0.1,0.7,0.1,1.4,0,2.2c1.5-3.4,4-6.3,7.1-8.2v-4.3c-0.5,2.1-0.6,4.3-0.2,6.4c1.3,6,8.3,3.8,8.4-1.5
	c0-1,0-2,0-2.9c0-0.2,0-1.5,0-0.8c-0.1,6.1-8.2,5.9-8.4-0.1v4.2l0.2-1.1c0.2-0.7-0.4-4,0-4.3c-3.2,1.9-5.7,4.8-7.1,8.2v2.1
	c0.1-5.5,0.8-11.1,2.2-16.4c0.2-0.9-0.6-3.7,0-4.3C29,27.6,24.8,33,20.9,38.6c-3,4.5-7.8,10.2-8.9,15.6c-0.4,1.8-0.4,3.7-0.1,5.5
	c0.2,1.6,1.6,2.7,3.2,2.6c2.9-0.1,4.2-3,5-5.3c2.3-6.7,1.9-14.5,1.6-21.5s-1.2-14.1,0.6-21c0.7-2.6,1.7-6,3.6-8s4.3-2.5,5,0.6V2.7
	C27.5,20,16.5,33.6,7.6,48.4c-3.2,5-5,10.8-5.2,16.7c0,2.2,0.1,13.6,4.1,9.7C7.1,74,5.7,71.2,6.4,70.5z"/>
<path d="M34.8,8c-0.4,2.1-0.4,4.2,0,6.2c0.9,3.5,5.3,4.8,5.7,8.6v-4.3c0,0.4-0.1,0.9-0.3,1.3c-0.5,1.3,0.4,3,0,4.3
	c0.6-2,0.6-4.1,0.2-6.2c-0.7-3.6-5-5-5.7-8.6v2.1v-0.6v2.1l0.1-0.6C35.2,10.9,34.6,9.3,34.8,8L34.8,8z"/>
</svg>
